<svg xmlns="http://www.w3.org/2000/svg" xmlns:xlink="http://www.w3.org/1999/xlink" width="40" zoomAndPan="magnify" viewBox="0 0 30 30.000001" height="40" preserveAspectRatio="xMidYMid meet" version="1.0"><defs><clipPath id="cbfaaaa66d"><path d="M 1 0 L 29.515625 0 L 29.515625 26 L 1 26 Z M 1 0 " clip-rule="nonzero"/></clipPath><clipPath id="481d64c5b2"><path d="M 0.484375 0.0078125 L 29.515625 0.0078125 L 29.515625 29.023438 L 0.484375 29.023438 Z M 0.484375 0.0078125 " clip-rule="nonzero"/></clipPath></defs><path fill="#000000" d="M 12.390625 5.519531 C 12.71875 5.542969 13.332031 5.191406 13.230469 5.03125 C 13.1875 4.964844 13.207031 4.945312 13.273438 4.988281 C 13.339844 5.027344 13.597656 4.859375 13.867188 4.597656 L 14.34375 4.132812 L 14.589844 4.378906 C 14.722656 4.511719 14.863281 4.773438 14.902344 4.960938 C 14.953125 5.214844 15.058594 5.347656 15.324219 5.476562 C 15.515625 5.574219 15.753906 5.652344 15.847656 5.65625 C 16.285156 5.65625 16.421875 4.582031 16.027344 4.242188 C 15.902344 4.132812 15.757812 4.042969 15.710938 4.042969 C 15.664062 4.042969 15.625 3.953125 15.625 3.847656 C 15.625 3.738281 15.578125 3.621094 15.523438 3.589844 C 15.46875 3.554688 15.378906 3.441406 15.324219 3.339844 C 15.242188 3.195312 15.28125 3.09375 15.511719 2.867188 C 16.253906 2.128906 16.710938 1.117188 16.300781 1.117188 C 16.234375 1.117188 15.84375 1.394531 15.433594 1.726562 C 14.742188 2.289062 14.417969 2.425781 14.488281 2.132812 C 14.503906 2.054688 14.445312 2.03125 14.320312 2.070312 C 14.183594 2.113281 14.113281 2.074219 14.074219 1.929688 C 13.996094 1.628906 13.589844 1.503906 13.382812 1.710938 C 13.179688 1.910156 13.203125 2.046875 13.527344 2.65625 C 13.75 3.070312 13.765625 3.15625 13.640625 3.277344 C 13.5625 3.359375 13.496094 3.476562 13.496094 3.539062 C 13.496094 3.605469 13.425781 3.632812 13.339844 3.601562 C 13.253906 3.566406 13.207031 3.578125 13.234375 3.625 C 13.261719 3.671875 13.039062 3.972656 12.734375 4.292969 C 12.429688 4.613281 12.171875 4.960938 12.164062 5.0625 C 12.15625 5.167969 12.144531 5.308594 12.136719 5.375 C 12.132812 5.441406 12.246094 5.507812 12.390625 5.519531 " fill-opacity="1" fill-rule="nonzero"/><path fill="#000000" d="M 23.320312 2.53125 C 23.378906 2.53125 23.429688 2.574219 23.429688 2.628906 C 23.429688 2.6875 23.40625 2.730469 23.382812 2.730469 C 23.359375 2.730469 23.308594 2.6875 23.277344 2.628906 C 23.242188 2.574219 23.261719 2.53125 23.320312 2.53125 Z M 23.976562 2.722656 C 24.027344 2.734375 24.105469 2.683594 24.152344 2.609375 C 24.214844 2.511719 24.234375 2.527344 24.238281 2.660156 C 24.238281 2.761719 24.296875 2.832031 24.363281 2.824219 C 24.816406 2.765625 25.195312 2.996094 25.09375 3.269531 C 25.054688 3.371094 24.773438 3.5625 24.464844 3.695312 C 24.160156 3.832031 23.832031 3.941406 23.738281 3.941406 C 23.351562 3.941406 23.214844 3.492188 23.445312 2.988281 C 23.550781 2.757812 23.714844 2.675781 23.976562 2.722656 Z M 23.636719 5.019531 C 23.746094 4.992188 23.832031 5.003906 23.832031 5.046875 C 23.832031 5.199219 24.695312 5.09375 24.972656 4.90625 C 25.125 4.808594 25.253906 4.691406 25.253906 4.648438 C 25.253906 4.605469 25.332031 4.578125 25.433594 4.585938 C 25.53125 4.589844 25.816406 4.394531 26.066406 4.148438 C 26.316406 3.902344 26.460938 3.734375 26.390625 3.777344 C 26.324219 3.816406 26.265625 3.804688 26.265625 3.746094 C 26.265625 3.6875 26.3125 3.636719 26.367188 3.636719 C 26.542969 3.636719 26.488281 2.652344 26.308594 2.550781 C 26.21875 2.5 26.144531 2.417969 26.144531 2.371094 C 26.136719 2.210938 25.894531 1.921875 25.824219 1.992188 C 25.789062 2.027344 25.757812 2.007812 25.757812 1.949219 C 25.757812 1.792969 25.140625 1.609375 24.707031 1.640625 C 24.503906 1.652344 24.339844 1.691406 24.339844 1.722656 C 24.339844 1.757812 24.113281 1.78125 23.832031 1.773438 C 23.554688 1.769531 23.328125 1.800781 23.328125 1.851562 C 23.328125 1.898438 23.285156 1.910156 23.230469 1.878906 C 23.132812 1.816406 22.3125 2.558594 22.3125 2.710938 C 22.3125 2.761719 22.414062 2.851562 22.542969 2.910156 C 22.730469 3 22.738281 3.019531 22.585938 3.027344 C 22.484375 3.03125 22.429688 3.078125 22.464844 3.136719 C 22.5 3.191406 22.582031 3.207031 22.648438 3.167969 C 22.71875 3.125 22.710938 3.167969 22.628906 3.265625 C 22.554688 3.359375 22.425781 3.4375 22.347656 3.4375 C 22.121094 3.4375 22.230469 4.140625 22.511719 4.519531 C 22.769531 4.863281 23.308594 5.105469 23.636719 5.019531 " fill-opacity="1" fill-rule="nonzero"/><path fill="#000000" d="M 5.835938 23.8125 C 5.773438 23.914062 5.554688 23.929688 5.457031 23.835938 C 5.339844 23.71875 5.484375 23.617188 5.691406 23.667969 C 5.800781 23.699219 5.867188 23.761719 5.835938 23.8125 Z M 4.410156 23.144531 C 4.378906 23.0625 4.3125 23.019531 4.261719 23.050781 C 4.214844 23.082031 4.171875 23.054688 4.171875 22.992188 C 4.171875 22.929688 4.136719 22.902344 4.097656 22.925781 C 4.054688 22.953125 3.9375 22.863281 3.839844 22.730469 C 3.734375 22.589844 3.703125 22.488281 3.769531 22.488281 C 3.832031 22.488281 3.867188 22.433594 3.84375 22.363281 C 3.785156 22.1875 4.226562 21.144531 4.378906 21.09375 C 4.449219 21.070312 4.476562 21.097656 4.441406 21.15625 C 4.371094 21.265625 5.171875 21.582031 5.511719 21.582031 C 6.015625 21.582031 5.808594 22.761719 5.246094 23.105469 C 4.871094 23.332031 4.492188 23.351562 4.410156 23.144531 Z M 6.527344 20.648438 C 6.457031 20.664062 6.402344 20.632812 6.402344 20.582031 C 6.402344 20.492188 5.996094 20.371094 5.511719 20.316406 C 5.382812 20.300781 5.210938 20.230469 5.125 20.160156 C 4.808594 19.898438 3.5625 20.050781 3.5625 20.351562 C 3.5625 20.390625 3.460938 20.46875 3.339844 20.523438 C 3.082031 20.636719 2.773438 21.191406 2.691406 21.683594 C 2.679688 21.765625 2.625 21.976562 2.570312 22.148438 C 2.515625 22.320312 2.507812 22.523438 2.554688 22.597656 C 2.601562 22.671875 2.617188 22.769531 2.589844 22.8125 C 2.5625 22.855469 2.574219 22.949219 2.621094 23.019531 C 2.664062 23.085938 2.699219 23.171875 2.703125 23.207031 C 2.707031 23.386719 3.414062 24.226562 3.671875 24.359375 C 3.835938 24.441406 3.96875 24.476562 3.96875 24.4375 C 3.96875 24.398438 4.023438 24.417969 4.085938 24.480469 C 4.152344 24.546875 4.230469 24.582031 4.265625 24.5625 C 4.296875 24.542969 4.621094 24.511719 4.984375 24.492188 C 5.636719 24.457031 5.644531 24.453125 6.226562 23.867188 C 6.546875 23.542969 6.78125 23.234375 6.75 23.183594 C 6.71875 23.136719 6.742188 23.09375 6.800781 23.09375 C 6.859375 23.09375 6.902344 23.058594 6.894531 23.019531 C 6.882812 22.976562 6.914062 22.859375 6.957031 22.757812 C 7.011719 22.632812 6.992188 22.535156 6.898438 22.46875 C 6.789062 22.390625 6.792969 22.382812 6.933594 22.425781 C 7.035156 22.457031 7.113281 22.429688 7.121094 22.359375 C 7.121094 22.292969 7.148438 22.128906 7.171875 21.996094 C 7.195312 21.867188 7.164062 21.695312 7.101562 21.621094 C 7.015625 21.515625 7.015625 21.480469 7.105469 21.480469 C 7.179688 21.480469 7.144531 21.367188 7.019531 21.191406 C 6.90625 21.035156 6.84375 20.871094 6.882812 20.835938 C 6.921875 20.796875 6.875 20.796875 6.773438 20.832031 C 6.652344 20.878906 6.605469 20.855469 6.625 20.761719 C 6.640625 20.6875 6.597656 20.636719 6.527344 20.648438 " fill-opacity="1" fill-rule="nonzero"/><path fill="#000000" d="M 14.585938 13.644531 C 14.40625 13.730469 14.164062 13.824219 14.054688 13.855469 C 13.828125 13.921875 13.496094 13.769531 13.496094 13.597656 C 13.496094 13.539062 13.414062 13.425781 13.320312 13.351562 C 13.222656 13.273438 13.1875 13.21875 13.242188 13.226562 C 13.492188 13.257812 13.597656 13.203125 13.597656 13.035156 C 13.597656 12.699219 14.160156 11.960938 14.585938 11.738281 L 15.003906 11.519531 L 15.105469 11.8125 C 15.164062 11.972656 15.257812 12.105469 15.316406 12.105469 C 15.375 12.105469 15.421875 12.285156 15.421875 12.5 C 15.421875 12.964844 15.097656 13.410156 14.585938 13.644531 Z M 15.980469 11.097656 C 15.851562 11.097656 15.71875 11.027344 15.6875 10.945312 C 15.632812 10.796875 15.25 10.816406 14.964844 10.984375 C 14.804688 11.078125 14.605469 11.089844 14.660156 11 C 14.6875 10.957031 14.609375 10.894531 14.484375 10.859375 C 14.074219 10.753906 12.683594 11.640625 12.683594 12.007812 C 12.683594 12.109375 12.640625 12.222656 12.582031 12.257812 C 12.527344 12.292969 12.410156 12.484375 12.328125 12.679688 C 12.207031 12.96875 12.199219 13.164062 12.285156 13.703125 C 12.34375 14.070312 12.4375 14.398438 12.496094 14.433594 C 12.554688 14.46875 12.601562 14.539062 12.605469 14.585938 C 12.605469 14.636719 12.816406 14.800781 13.078125 14.953125 C 13.550781 15.230469 14.140625 15.316406 14.257812 15.128906 C 14.292969 15.074219 14.433594 15.046875 14.570312 15.074219 C 14.707031 15.097656 14.796875 15.085938 14.773438 15.042969 C 14.746094 15.003906 14.972656 14.863281 15.277344 14.734375 C 15.582031 14.601562 15.808594 14.472656 15.78125 14.445312 C 15.753906 14.421875 15.886719 14.210938 16.074219 13.984375 C 16.261719 13.753906 16.480469 13.40625 16.5625 13.210938 C 16.878906 12.453125 16.503906 11.097656 15.980469 11.097656 " fill-opacity="1" fill-rule="nonzero"/><path fill="#000000" d="M 22.769531 24.910156 C 22.734375 24.964844 22.6875 25.007812 22.660156 25.007812 C 22.636719 25.007812 22.617188 24.964844 22.617188 24.910156 C 22.617188 24.851562 22.664062 24.808594 22.726562 24.808594 C 22.785156 24.808594 22.804688 24.851562 22.769531 24.910156 Z M 22.820312 21.882812 C 22.730469 21.824219 22.714844 21.785156 22.789062 21.785156 C 22.855469 21.785156 22.9375 21.828125 22.972656 21.882812 C 23.050781 22.011719 23.015625 22.011719 22.820312 21.882812 Z M 25.578125 21.757812 C 25.710938 21.714844 25.601562 21.179688 25.460938 21.179688 C 25.347656 21.179688 24.640625 21.851562 24.417969 22.175781 C 24.253906 22.414062 24.242188 22.414062 23.976562 22.238281 C 23.644531 22.023438 23.234375 21.574219 23.226562 21.421875 C 23.226562 21.359375 23.066406 21.226562 22.875 21.125 C 22.535156 20.941406 22.519531 20.941406 22.320312 21.125 C 22.082031 21.335938 22.027344 21.835938 22.246094 21.753906 C 22.320312 21.726562 22.445312 21.742188 22.523438 21.792969 C 22.644531 21.867188 22.644531 21.882812 22.515625 21.890625 C 22.433594 21.894531 22.5 21.964844 22.667969 22.039062 C 22.835938 22.117188 22.914062 22.179688 22.839844 22.183594 C 22.765625 22.183594 22.734375 22.230469 22.765625 22.28125 C 22.796875 22.332031 22.777344 22.402344 22.71875 22.4375 C 22.511719 22.566406 22.625 22.792969 23.023438 23.054688 C 23.433594 23.324219 23.539062 23.496094 23.292969 23.496094 C 23.21875 23.496094 23.085938 23.644531 22.996094 23.824219 C 22.546875 24.730469 22.441406 24.988281 22.375 25.328125 C 22.320312 25.636719 22.339844 25.707031 22.488281 25.738281 C 22.691406 25.785156 23.304688 25.28125 23.832031 24.636719 C 24.234375 24.144531 24.351562 24.179688 24.664062 24.882812 C 24.832031 25.261719 24.894531 25.3125 25.1875 25.3125 C 25.367188 25.3125 25.570312 25.257812 25.636719 25.191406 C 25.773438 25.054688 25.800781 24.746094 25.683594 24.679688 C 25.640625 24.65625 25.664062 24.652344 25.734375 24.671875 C 25.949219 24.722656 25.816406 24.054688 25.546875 23.71875 C 25.414062 23.550781 25.203125 23.367188 25.082031 23.308594 C 24.847656 23.199219 24.792969 22.792969 25.015625 22.792969 C 25.082031 22.792969 25.195312 22.632812 25.265625 22.4375 C 25.335938 22.246094 25.4375 22.085938 25.484375 22.085938 C 25.535156 22.085938 25.550781 22.019531 25.523438 21.941406 C 25.492188 21.863281 25.515625 21.78125 25.578125 21.757812 " fill-opacity="1" fill-rule="nonzero"/><path fill="#000000" d="M 24.980469 12.871094 C 24.898438 13.082031 23.960938 13.71875 23.730469 13.71875 C 23.621094 13.71875 23.527344 13.765625 23.527344 13.820312 C 23.527344 13.964844 23.410156 13.941406 23.152344 13.742188 C 22.960938 13.59375 22.941406 13.515625 23.015625 13.214844 C 23.152344 12.648438 23.3125 12.308594 23.441406 12.308594 C 23.507812 12.308594 23.53125 12.277344 23.496094 12.242188 C 23.460938 12.203125 23.519531 12.113281 23.628906 12.035156 C 23.804688 11.914062 23.890625 11.921875 24.300781 12.101562 C 24.554688 12.214844 24.808594 12.28125 24.859375 12.25 C 24.90625 12.21875 24.953125 12.230469 24.957031 12.277344 C 24.960938 12.320312 24.980469 12.441406 25 12.546875 C 25.019531 12.648438 25.011719 12.792969 24.980469 12.871094 Z M 26.273438 12 C 26.253906 11.878906 25.699219 11.324219 25.484375 11.210938 C 25.359375 11.148438 25.074219 11.082031 24.851562 11.070312 C 24.625 11.058594 24.441406 11.015625 24.441406 10.980469 C 24.441406 10.882812 23.957031 10.960938 23.480469 11.132812 C 23.253906 11.210938 23.085938 11.328125 23.097656 11.390625 C 23.113281 11.449219 23.054688 11.5 22.972656 11.5 C 22.886719 11.5 22.820312 11.542969 22.820312 11.589844 C 22.820312 11.640625 22.730469 11.703125 22.617188 11.730469 C 22.367188 11.796875 21.992188 12.609375 21.953125 13.160156 C 21.9375 13.382812 21.878906 13.578125 21.824219 13.597656 C 21.761719 13.617188 21.753906 13.738281 21.804688 13.910156 C 21.929688 14.347656 22.109375 14.636719 22.214844 14.574219 C 22.269531 14.539062 22.28125 14.589844 22.246094 14.6875 C 22.199219 14.804688 22.214844 14.835938 22.296875 14.789062 C 22.359375 14.75 22.414062 14.753906 22.414062 14.804688 C 22.414062 14.851562 22.539062 14.9375 22.691406 15 C 22.972656 15.109375 23.523438 15.097656 24.085938 14.972656 C 24.253906 14.933594 24.570312 14.71875 24.789062 14.488281 C 25.007812 14.257812 25.125 14.152344 25.054688 14.25 C 24.953125 14.382812 24.953125 14.425781 25.046875 14.425781 C 25.113281 14.425781 25.191406 14.339844 25.21875 14.234375 C 25.25 14.117188 25.335938 14.0625 25.441406 14.089844 C 25.617188 14.136719 26.105469 13.792969 26.003906 13.695312 C 25.972656 13.664062 26.035156 13.480469 26.140625 13.285156 C 26.296875 12.992188 26.351562 12.484375 26.273438 12 " fill-opacity="1" fill-rule="nonzero"/><g clip-path="url(#cbfaaaa66d)"><path fill="#000000" d="M 19.46875 11.199219 C 19.417969 11.199219 19.375 11.152344 19.375 11.097656 C 19.375 11.042969 19.445312 10.996094 19.53125 10.996094 C 19.621094 10.996094 19.660156 11.042969 19.628906 11.097656 C 19.59375 11.152344 19.523438 11.199219 19.46875 11.199219 Z M 19.367188 3.4375 C 19.425781 3.4375 19.476562 3.484375 19.476562 3.539062 C 19.476562 3.59375 19.457031 3.636719 19.429688 3.636719 C 19.40625 3.636719 19.359375 3.59375 19.324219 3.539062 C 19.289062 3.484375 19.308594 3.4375 19.367188 3.4375 Z M 19.21875 23.402344 C 19.136719 23.535156 19.105469 23.519531 19.105469 23.351562 C 19.105469 23.269531 19.140625 23.226562 19.191406 23.257812 C 19.238281 23.285156 19.25 23.351562 19.21875 23.402344 Z M 18.765625 16.542969 C 18.710938 16.542969 18.664062 16.496094 18.664062 16.441406 C 18.664062 16.386719 18.710938 16.339844 18.765625 16.339844 C 18.820312 16.339844 18.867188 16.386719 18.867188 16.441406 C 18.867188 16.496094 18.820312 16.542969 18.765625 16.542969 Z M 18.703125 23.238281 C 18.636719 23.414062 18.5625 23.445312 18.5625 23.300781 C 18.5625 23.25 18.609375 23.179688 18.664062 23.144531 C 18.71875 23.109375 18.738281 23.148438 18.703125 23.238281 Z M 18.457031 15.378906 C 18.496094 15.484375 18.488281 15.78125 18.4375 16.03125 C 18.355469 16.429688 18.289062 16.992188 18.265625 17.421875 C 18.261719 17.515625 17.996094 17.550781 17.289062 17.550781 C 16.757812 17.550781 16.242188 17.589844 16.148438 17.636719 C 16.050781 17.691406 15.878906 17.691406 15.738281 17.636719 C 15.605469 17.585938 14.25 17.5625 12.722656 17.585938 C 10.371094 17.617188 9.949219 17.601562 9.949219 17.480469 C 9.949219 17.390625 9.902344 17.367188 9.820312 17.410156 C 9.734375 17.464844 9.738281 17.433594 9.832031 17.316406 C 9.910156 17.226562 9.988281 16.921875 10.011719 16.640625 C 10.03125 16.359375 10.070312 15.976562 10.09375 15.789062 C 10.117188 15.582031 10.085938 15.425781 10.015625 15.394531 C 9.941406 15.363281 9.945312 15.34375 10.039062 15.339844 C 10.148438 15.332031 10.152344 15.300781 10.050781 15.179688 C 9.980469 15.097656 9.964844 15.03125 10.011719 15.03125 C 10.15625 15.03125 10.230469 11.304688 10.089844 11.078125 C 10.042969 11.003906 10.074219 10.984375 10.167969 11.019531 C 10.296875 11.070312 10.320312 10.90625 10.328125 9.96875 C 10.335938 9.359375 10.363281 8.835938 10.394531 8.808594 C 10.421875 8.777344 10.40625 8.671875 10.351562 8.574219 C 10.277344 8.4375 10.304688 8.382812 10.484375 8.328125 C 10.90625 8.191406 11.054688 8.179688 11.109375 8.265625 C 11.136719 8.3125 11.335938 8.328125 11.542969 8.300781 C 11.753906 8.269531 12.015625 8.238281 12.128906 8.234375 C 12.238281 8.230469 12.363281 8.179688 12.40625 8.125 C 12.453125 8.058594 12.480469 8.0625 12.480469 8.128906 C 12.484375 8.21875 13.777344 8.261719 13.875 8.175781 C 13.90625 8.148438 14.296875 8.144531 14.332031 8.171875 C 14.417969 8.238281 14.8125 8.226562 14.8125 8.15625 C 14.8125 8.113281 14.863281 8.074219 14.921875 8.074219 C 14.980469 8.074219 14.996094 8.125 14.957031 8.191406 C 14.910156 8.261719 14.929688 8.28125 15 8.234375 C 15.066406 8.195312 15.214844 8.230469 15.328125 8.3125 C 15.519531 8.445312 15.578125 8.4375 15.894531 8.253906 C 16.148438 8.105469 16.277344 8.078125 16.355469 8.15625 C 16.429688 8.230469 16.527344 8.234375 16.65625 8.164062 C 16.757812 8.109375 16.898438 8.101562 16.96875 8.144531 C 17.039062 8.1875 17.367188 8.230469 17.703125 8.238281 C 18.625 8.257812 18.679688 8.265625 18.613281 8.375 C 18.578125 8.433594 18.589844 8.476562 18.632812 8.476562 C 18.730469 8.476562 18.714844 9.460938 18.613281 9.714844 C 18.574219 9.8125 18.597656 9.957031 18.664062 10.042969 C 18.753906 10.148438 18.757812 10.191406 18.675781 10.191406 C 18.597656 10.191406 18.5625 10.480469 18.570312 11.074219 C 18.582031 12.625 18.507812 14.976562 18.445312 15.078125 C 18.414062 15.136719 18.417969 15.269531 18.457031 15.378906 Z M 15.523438 18.054688 C 15.410156 18.054688 15.320312 18.035156 15.320312 18.015625 C 15.320312 17.992188 15.410156 17.953125 15.523438 17.921875 C 15.636719 17.894531 15.726562 17.914062 15.726562 17.960938 C 15.726562 18.011719 15.636719 18.054688 15.523438 18.054688 Z M 10.152344 8.78125 C 10.207031 8.78125 10.253906 8.824219 10.253906 8.878906 C 10.253906 8.9375 10.207031 8.980469 10.152344 8.980469 C 10.097656 8.980469 10.050781 8.9375 10.050781 8.878906 C 10.050781 8.824219 10.097656 8.78125 10.152344 8.78125 Z M 10.15625 5.855469 C 10.21875 5.855469 10.238281 5.902344 10.203125 5.957031 C 10.167969 6.011719 10.121094 6.058594 10.09375 6.058594 C 10.070312 6.058594 10.050781 6.011719 10.050781 5.957031 C 10.050781 5.902344 10.097656 5.855469 10.15625 5.855469 Z M 16.519531 7.226562 C 16.441406 7.273438 16.429688 7.253906 16.484375 7.167969 C 16.550781 7.0625 16.597656 7.078125 16.703125 7.222656 C 16.8125 7.367188 16.8125 7.421875 16.714844 7.488281 C 16.644531 7.53125 16.542969 7.5625 16.484375 7.5625 C 16.429688 7.558594 16.441406 7.53125 16.511719 7.503906 C 16.582031 7.476562 16.636719 7.386719 16.636719 7.304688 C 16.636719 7.21875 16.589844 7.183594 16.519531 7.226562 Z M 9.453125 8.679688 C 9.335938 8.679688 9.238281 8.636719 9.238281 8.585938 C 9.238281 8.410156 9.417969 8.378906 9.542969 8.527344 C 9.648438 8.652344 9.632812 8.679688 9.453125 8.679688 Z M 5.890625 8.273438 C 5.832031 8.273438 5.808594 8.230469 5.84375 8.175781 C 5.878906 8.121094 5.925781 8.074219 5.953125 8.074219 C 5.976562 8.074219 5.996094 8.121094 5.996094 8.175781 C 5.996094 8.230469 5.949219 8.273438 5.890625 8.273438 Z M 29.835938 18.898438 C 29.769531 18.9375 29.710938 18.929688 29.710938 18.878906 C 29.710938 18.769531 28.902344 18.542969 28.78125 18.621094 C 28.734375 18.648438 28.695312 18.625 28.695312 18.570312 C 28.695312 18.480469 28.53125 18.425781 27.886719 18.304688 C 27.746094 18.28125 27.519531 18.238281 27.378906 18.210938 C 27.035156 18.144531 26.097656 18.035156 25.628906 18.003906 C 25.417969 17.992188 25.21875 17.953125 25.1875 17.921875 C 25.15625 17.890625 25.019531 17.90625 24.882812 17.960938 C 24.742188 18.011719 24.652344 18.019531 24.679688 17.976562 C 24.703125 17.9375 24.558594 17.898438 24.355469 17.890625 C 24.152344 17.882812 23.621094 17.84375 23.175781 17.804688 C 22.5 17.746094 20.742188 17.707031 20.742188 17.753906 C 20.742188 17.761719 20.613281 17.789062 20.453125 17.816406 C 20.269531 17.84375 20.191406 17.824219 20.234375 17.757812 C 20.269531 17.699219 20.226562 17.644531 20.140625 17.636719 C 19.847656 17.613281 19.796875 17.601562 19.710938 17.515625 C 19.613281 17.417969 19.578125 16.335938 19.667969 16.1875 C 19.714844 16.109375 19.789062 14.144531 19.777344 13.316406 C 19.773438 13.234375 19.773438 13.054688 19.777344 12.921875 C 19.777344 12.789062 19.722656 12.609375 19.652344 12.527344 C 19.550781 12.402344 19.550781 12.386719 19.652344 12.445312 C 19.816406 12.542969 19.929688 12.269531 19.824219 12.03125 C 19.78125 11.933594 19.761719 11.808594 19.777344 11.753906 C 19.796875 11.699219 19.820312 11.238281 19.832031 10.730469 C 19.847656 10.222656 19.886719 9.761719 19.921875 9.703125 C 19.957031 9.644531 19.9375 9.570312 19.882812 9.539062 C 19.773438 9.472656 19.761719 8.378906 19.867188 8.371094 C 19.902344 8.367188 20.402344 8.347656 20.976562 8.324219 C 21.550781 8.300781 22.070312 8.25 22.132812 8.210938 C 22.195312 8.171875 22.214844 8.1875 22.175781 8.25 C 22.140625 8.308594 22.179688 8.382812 22.261719 8.414062 C 22.347656 8.445312 22.414062 8.429688 22.414062 8.375 C 22.414062 8.324219 22.898438 8.277344 23.503906 8.273438 C 25.316406 8.257812 25.507812 8.242188 25.472656 8.082031 C 25.449219 7.96875 25.472656 7.964844 25.589844 8.058594 C 25.707031 8.15625 25.832031 8.144531 26.179688 8.011719 C 26.636719 7.835938 26.976562 7.597656 26.976562 7.457031 C 26.976562 7.300781 26.519531 7.082031 26.070312 7.015625 C 25.273438 6.898438 24.101562 6.917969 24.058594 7.046875 C 24.035156 7.113281 23.980469 7.144531 23.929688 7.113281 C 23.882812 7.085938 23.867188 6.980469 23.898438 6.886719 C 23.929688 6.785156 23.917969 6.753906 23.867188 6.8125 C 23.714844 6.992188 23.398438 7.035156 23.046875 6.925781 C 22.914062 6.882812 22.820312 6.894531 22.820312 6.949219 C 22.820312 7.046875 22.171875 7.015625 22 6.910156 C 21.957031 6.882812 21.894531 6.902344 21.863281 6.957031 C 21.828125 7.011719 21.683594 7.015625 21.523438 6.972656 C 21.371094 6.929688 21.15625 6.925781 21.046875 6.964844 C 20.933594 7.003906 20.753906 7.023438 20.640625 7.003906 C 20.53125 6.984375 20.289062 6.957031 20.109375 6.941406 C 19.785156 6.914062 19.78125 6.902344 19.769531 6.410156 C 19.761719 6.132812 19.746094 5.679688 19.734375 5.402344 C 19.71875 5.125 19.757812 4.832031 19.820312 4.753906 C 19.890625 4.660156 19.894531 4.628906 19.824219 4.671875 C 19.75 4.714844 19.707031 4.34375 19.691406 3.507812 C 19.671875 2.382812 19.644531 2.058594 19.523438 1.328125 C 19.5 1.191406 19.40625 1.011719 19.3125 0.925781 C 19.21875 0.835938 19.175781 0.820312 19.214844 0.890625 C 19.257812 0.96875 19.222656 1.015625 19.125 1.015625 C 19.039062 1.015625 18.964844 1.074219 18.960938 1.144531 C 18.957031 1.210938 18.9375 1.382812 18.917969 1.523438 C 18.832031 2.214844 18.792969 3.8125 18.863281 3.992188 C 18.90625 4.113281 18.886719 4.273438 18.808594 4.394531 C 18.714844 4.539062 18.683594 4.945312 18.703125 5.789062 L 18.726562 6.980469 L 18.441406 6.941406 C 18.28125 6.917969 18.15625 6.945312 18.15625 7.007812 C 18.15625 7.074219 18.125 7.070312 18.078125 6.996094 C 18.03125 6.921875 17.945312 6.910156 17.863281 6.960938 C 17.789062 7.007812 17.597656 7.007812 17.441406 6.964844 C 17.285156 6.917969 17.132812 6.90625 17.101562 6.9375 C 17.070312 6.96875 16.714844 6.984375 16.308594 6.972656 C 15.90625 6.957031 15.300781 6.945312 14.964844 6.949219 C 14.632812 6.953125 14.015625 6.953125 13.597656 6.949219 C 13.179688 6.945312 12.78125 6.953125 12.710938 6.957031 C 12.425781 6.984375 12.214844 6.980469 11.925781 6.941406 C 11.585938 6.898438 11.140625 7.046875 11.226562 7.179688 C 11.253906 7.230469 11.230469 7.265625 11.171875 7.265625 C 11.113281 7.265625 11.0625 7.195312 11.0625 7.109375 C 11.0625 7.007812 10.984375 6.957031 10.835938 6.96875 C 10.710938 6.980469 10.5625 6.980469 10.507812 6.976562 C 10.441406 6.96875 10.414062 6.410156 10.429688 5.476562 C 10.46875 2.9375 10.464844 2.699219 10.382812 2.636719 C 10.339844 2.605469 10.289062 2.449219 10.269531 2.292969 C 10.246094 2.078125 10.269531 2.023438 10.363281 2.082031 C 10.453125 2.136719 10.472656 2.109375 10.421875 1.984375 C 10.382812 1.886719 10.355469 1.679688 10.355469 1.519531 C 10.355469 1.363281 10.292969 1.175781 10.222656 1.101562 C 10.148438 1.027344 10.058594 0.890625 10.023438 0.792969 C 9.851562 0.34375 9.414062 1.015625 9.390625 1.769531 C 9.382812 2 9.351562 2.234375 9.324219 2.285156 C 9.292969 2.335938 9.277344 2.515625 9.285156 2.679688 C 9.292969 2.847656 9.265625 3.082031 9.222656 3.207031 C 9.179688 3.332031 9.1875 3.457031 9.242188 3.488281 C 9.304688 3.527344 9.304688 3.617188 9.242188 3.734375 C 9.191406 3.832031 9.167969 3.9375 9.195312 3.964844 C 9.292969 4.0625 9.328125 4.441406 9.242188 4.492188 C 9.195312 4.523438 9.179688 4.636719 9.210938 4.746094 C 9.238281 4.855469 9.292969 4.929688 9.332031 4.902344 C 9.371094 4.878906 9.46875 4.902344 9.546875 4.953125 C 9.667969 5.023438 9.667969 5.066406 9.5625 5.171875 C 9.457031 5.277344 9.417969 5.273438 9.34375 5.152344 C 9.265625 5.027344 9.242188 5.03125 9.183594 5.179688 C 9.144531 5.277344 9.140625 5.445312 9.167969 5.554688 C 9.195312 5.664062 9.171875 5.753906 9.113281 5.753906 C 9.050781 5.753906 9.03125 5.78125 9.0625 5.816406 C 9.097656 5.851562 9.082031 5.988281 9.03125 6.121094 C 8.953125 6.328125 8.972656 6.382812 9.164062 6.457031 C 9.339844 6.527344 9.351562 6.550781 9.214844 6.554688 C 9.09375 6.558594 9.035156 6.644531 9.035156 6.808594 C 9.035156 7.003906 9.074219 7.046875 9.214844 6.996094 C 9.3125 6.960938 9.363281 6.964844 9.324219 7.007812 C 9.203125 7.140625 7.667969 7.25 7.554688 7.136719 C 7.519531 7.101562 7.398438 7.121094 7.289062 7.179688 C 7.136719 7.261719 7.105469 7.257812 7.160156 7.167969 C 7.21875 7.074219 7.1875 7.070312 7.03125 7.15625 C 6.78125 7.289062 5.988281 7.363281 6.058594 7.25 C 6.085938 7.203125 6.035156 7.167969 5.945312 7.167969 C 5.855469 7.167969 5.800781 7.199219 5.828125 7.242188 C 5.855469 7.285156 5.570312 7.316406 5.199219 7.316406 C 4.828125 7.316406 4.484375 7.335938 4.433594 7.359375 C 4.382812 7.382812 3.988281 7.414062 3.558594 7.429688 C 2.691406 7.457031 2.027344 7.703125 1.984375 8.007812 C 1.96875 8.109375 1.984375 8.167969 2.015625 8.132812 C 2.050781 8.101562 2.136719 8.128906 2.214844 8.191406 C 2.289062 8.253906 2.382812 8.273438 2.417969 8.242188 C 2.453125 8.207031 2.535156 8.21875 2.597656 8.273438 C 2.785156 8.425781 4.191406 8.488281 4.363281 8.347656 C 4.453125 8.277344 4.488281 8.273438 4.449219 8.335938 C 4.402344 8.410156 4.683594 8.4375 5.367188 8.429688 C 5.910156 8.421875 6.398438 8.445312 6.453125 8.480469 C 6.589844 8.570312 7.425781 8.476562 7.367188 8.378906 C 7.339844 8.339844 7.488281 8.328125 7.695312 8.355469 C 8.164062 8.421875 8.535156 8.425781 8.734375 8.371094 C 8.820312 8.34375 8.875 8.382812 8.859375 8.457031 C 8.84375 8.527344 8.878906 8.675781 8.9375 8.785156 C 9.019531 8.929688 9.011719 8.984375 8.914062 8.988281 C 8.8125 8.996094 8.8125 9.007812 8.910156 9.046875 C 9.078125 9.113281 9.070312 9.398438 8.898438 9.726562 C 8.785156 9.949219 8.78125 10.0625 8.886719 10.363281 C 8.957031 10.570312 8.980469 10.84375 8.941406 10.988281 C 8.898438 11.132812 8.871094 12.132812 8.878906 13.214844 C 8.890625 14.6875 8.859375 15.238281 8.761719 15.40625 C 8.679688 15.542969 8.667969 15.632812 8.730469 15.632812 C 8.789062 15.632812 8.835938 15.703125 8.835938 15.785156 C 8.835938 15.867188 8.800781 15.9375 8.757812 15.9375 C 8.714844 15.9375 8.683594 16.304688 8.683594 16.753906 C 8.683594 17.199219 8.640625 17.59375 8.585938 17.628906 C 8.484375 17.691406 7.800781 17.75 7.246094 17.746094 C 7.070312 17.746094 6.894531 17.792969 6.859375 17.851562 C 6.824219 17.910156 6.738281 17.921875 6.671875 17.882812 C 6.503906 17.773438 6.003906 17.757812 5.941406 17.859375 C 5.914062 17.90625 5.78125 17.90625 5.644531 17.855469 C 5.511719 17.804688 5.28125 17.785156 5.136719 17.808594 C 4.988281 17.835938 4.425781 17.882812 3.886719 17.910156 C 3.347656 17.9375 2.835938 17.964844 2.753906 17.972656 C 2.671875 17.980469 2.542969 18.058594 2.472656 18.144531 C 2.402344 18.234375 2.351562 18.261719 2.359375 18.203125 C 2.386719 17.980469 2.339844 17.933594 2.195312 18.054688 C 2.113281 18.121094 2.070312 18.21875 2.101562 18.265625 C 2.132812 18.316406 2.101562 18.355469 2.039062 18.355469 C 1.773438 18.355469 2.160156 18.640625 2.511719 18.703125 C 2.796875 18.757812 2.902344 18.730469 3.011719 18.589844 C 3.136719 18.429688 3.152344 18.425781 3.15625 18.570312 C 3.15625 18.691406 3.292969 18.757812 3.625 18.804688 C 4.007812 18.863281 4.113281 18.84375 4.226562 18.691406 C 4.3125 18.582031 4.371094 18.558594 4.371094 18.632812 C 4.375 18.789062 4.679688 18.800781 4.679688 18.644531 C 4.679688 18.570312 4.738281 18.582031 4.84375 18.671875 C 4.953125 18.761719 5.3125 18.808594 5.910156 18.816406 C 6.402344 18.820312 6.832031 18.851562 6.859375 18.878906 C 6.890625 18.910156 7.152344 18.878906 7.445312 18.8125 C 7.953125 18.695312 8.644531 18.769531 8.617188 18.9375 C 8.585938 19.148438 8.644531 19.265625 8.75 19.203125 C 8.820312 19.160156 8.835938 19.175781 8.792969 19.25 C 8.753906 19.3125 8.675781 19.339844 8.625 19.308594 C 8.574219 19.277344 8.53125 19.339844 8.53125 19.449219 C 8.53125 19.558594 8.503906 19.722656 8.46875 19.808594 C 8.429688 19.914062 8.464844 19.96875 8.570312 19.96875 C 8.660156 19.96875 8.734375 20.015625 8.734375 20.074219 C 8.734375 20.132812 8.691406 20.15625 8.636719 20.125 C 8.417969 19.988281 8.335938 20.476562 8.332031 21.914062 C 8.328125 22.921875 8.339844 23.015625 8.480469 23.113281 C 8.535156 23.152344 8.582031 23.265625 8.582031 23.367188 C 8.582031 23.464844 8.636719 23.535156 8.703125 23.523438 C 8.777344 23.507812 8.800781 23.5625 8.765625 23.660156 C 8.71875 23.78125 8.761719 23.808594 8.945312 23.785156 C 9.082031 23.765625 9.171875 23.710938 9.15625 23.660156 C 9.136719 23.609375 9.164062 23.542969 9.214844 23.507812 C 9.460938 23.347656 9.644531 22.109375 9.675781 20.40625 C 9.6875 19.898438 9.730469 19.503906 9.773438 19.53125 C 9.851562 19.582031 9.878906 19.441406 9.855469 19.109375 C 9.832031 18.816406 10.359375 18.65625 11.113281 18.722656 C 12.230469 18.816406 13.546875 18.828125 13.71875 18.742188 C 13.820312 18.691406 13.914062 18.699219 13.953125 18.761719 C 13.992188 18.824219 14.078125 18.828125 14.175781 18.773438 C 14.265625 18.726562 14.421875 18.707031 14.523438 18.734375 C 14.632812 18.761719 14.710938 18.730469 14.710938 18.65625 C 14.710938 18.558594 14.746094 18.558594 14.863281 18.660156 C 14.953125 18.734375 15.140625 18.761719 15.320312 18.722656 C 15.488281 18.691406 15.625 18.703125 15.625 18.753906 C 15.625 18.832031 15.917969 18.859375 16.6875 18.851562 C 17.457031 18.839844 17.753906 18.804688 17.753906 18.71875 C 17.753906 18.664062 17.808594 18.671875 17.875 18.738281 C 17.941406 18.804688 18.113281 18.859375 18.253906 18.863281 C 18.402344 18.863281 18.464844 18.894531 18.398438 18.9375 C 18.320312 18.988281 18.296875 19.578125 18.324219 20.925781 C 18.378906 23.363281 18.367188 23.273438 18.664062 23.5 C 18.808594 23.609375 18.859375 23.695312 18.78125 23.695312 C 18.691406 23.699219 18.660156 23.773438 18.695312 23.910156 C 18.734375 24.058594 18.710938 24.101562 18.613281 24.066406 C 18.503906 24.023438 18.492188 24.058594 18.570312 24.234375 C 18.625 24.355469 18.695312 24.535156 18.730469 24.632812 C 18.761719 24.726562 18.832031 24.808594 18.886719 24.808594 C 18.9375 24.808594 18.953125 24.898438 18.917969 25.007812 C 18.882812 25.121094 18.898438 25.210938 18.957031 25.210938 C 19.011719 25.210938 19.085938 25.300781 19.121094 25.414062 C 19.191406 25.628906 19.519531 25.6875 19.632812 25.503906 C 19.757812 25.300781 19.792969 24.089844 19.675781 23.949219 C 19.59375 23.847656 19.609375 23.789062 19.75 23.710938 C 19.875 23.636719 19.886719 23.601562 19.789062 23.601562 C 19.710938 23.597656 19.667969 23.574219 19.699219 23.542969 C 19.730469 23.511719 19.71875 23.324219 19.675781 23.128906 C 19.628906 22.929688 19.625 22.675781 19.667969 22.5625 C 19.710938 22.449219 19.691406 22.199219 19.621094 22.003906 C 19.546875 21.785156 19.53125 21.539062 19.582031 21.367188 C 19.625 21.210938 19.625 20.824219 19.582031 20.503906 C 19.535156 20.171875 19.539062 19.902344 19.589844 19.882812 C 19.640625 19.867188 19.65625 19.8125 19.625 19.765625 C 19.597656 19.71875 19.601562 19.503906 19.636719 19.289062 L 19.699219 18.898438 L 20.777344 18.921875 C 21.371094 18.933594 22.070312 18.96875 22.332031 19 C 22.605469 19.03125 22.835938 19.015625 22.871094 18.960938 C 22.910156 18.894531 23.015625 18.902344 23.15625 18.980469 C 23.28125 19.046875 23.894531 19.109375 24.570312 19.125 C 25.226562 19.140625 25.816406 19.1875 25.886719 19.226562 C 25.953125 19.269531 26.167969 19.292969 26.363281 19.285156 C 26.5625 19.273438 27.191406 19.261719 27.761719 19.257812 C 28.335938 19.257812 28.785156 19.222656 28.761719 19.183594 C 28.734375 19.144531 28.929688 19.128906 29.195312 19.144531 C 29.558594 19.171875 29.707031 19.136719 29.820312 19 C 29.910156 18.890625 29.917969 18.851562 29.835938 18.898438 " fill-opacity="1" fill-rule="nonzero"/></g><path fill="#000000" d="M 3.261719 15.109375 C 3.027344 15.296875 2.632812 16.085938 2.726562 16.179688 C 2.832031 16.285156 2.949219 16.246094 3.160156 16.039062 C 3.269531 15.925781 3.363281 15.859375 3.363281 15.886719 C 3.363281 15.914062 3.449219 15.859375 3.554688 15.761719 C 3.660156 15.664062 3.910156 15.449219 4.113281 15.28125 C 4.507812 14.957031 4.566406 14.828125 4.320312 14.828125 C 4.230469 14.828125 4.191406 14.777344 4.226562 14.71875 C 4.277344 14.640625 4.328125 14.640625 4.40625 14.71875 C 4.484375 14.796875 4.578125 14.769531 4.734375 14.625 C 4.875 14.492188 4.953125 14.464844 4.960938 14.546875 C 4.972656 14.675781 5.050781 15.03125 5.089844 15.128906 C 5.097656 15.15625 5.101562 15.214844 5.09375 15.257812 C 5.0625 15.46875 5.414062 15.925781 5.679688 16.019531 C 6.171875 16.1875 6.347656 15.984375 6.269531 15.335938 C 6.234375 15.042969 6.15625 14.746094 6.09375 14.671875 C 6.035156 14.601562 5.972656 14.433594 5.957031 14.304688 C 5.941406 14.179688 5.851562 13.921875 5.757812 13.738281 C 5.582031 13.410156 5.582031 13.40625 5.945312 12.808594 C 6.148438 12.480469 6.355469 12.183594 6.410156 12.152344 C 6.5625 12.058594 6.910156 11.328125 6.910156 11.101562 C 6.910156 10.824219 6.613281 10.839844 6.339844 11.125 C 6.222656 11.25 5.890625 11.636719 5.597656 11.988281 L 5.0625 12.628906 L 4.714844 12.113281 C 4.523438 11.828125 4.332031 11.617188 4.289062 11.644531 C 4.246094 11.671875 4.128906 11.558594 4.03125 11.394531 C 3.917969 11.203125 3.777344 11.101562 3.636719 11.105469 C 3.511719 11.109375 3.46875 11.136719 3.539062 11.164062 C 3.71875 11.238281 3.695312 11.5 3.515625 11.5 C 3.347656 11.5 3.304688 11.667969 3.457031 11.71875 C 3.585938 11.765625 4.480469 13.515625 4.371094 13.515625 C 4.324219 13.515625 4.261719 13.597656 4.226562 13.695312 C 4.195312 13.789062 3.988281 14.066406 3.765625 14.308594 C 3.542969 14.546875 3.386719 14.789062 3.421875 14.839844 C 3.453125 14.890625 3.382812 15.011719 3.261719 15.109375 " fill-opacity="1" fill-rule="nonzero"/><g clip-path="url(#481d64c5b2)"><path fill="#000000" d="M 2.140625 26.605469 C 2.113281 26.605469 2.066406 26.558594 2.03125 26.503906 C 2 26.449219 2.019531 26.402344 2.078125 26.402344 C 2.136719 26.402344 2.183594 26.449219 2.183594 26.503906 C 2.183594 26.558594 2.164062 26.605469 2.140625 26.605469 Z M 30.585938 0.0273438 C 30.101562 0.0859375 29.519531 0.304688 29.414062 0.472656 C 29.371094 0.542969 29.289062 0.574219 29.238281 0.542969 C 29.183594 0.511719 29.140625 0.519531 29.140625 0.566406 C 29.140625 0.609375 28.910156 0.78125 28.632812 0.945312 C 28.355469 1.109375 28.101562 1.324219 28.070312 1.425781 C 28.039062 1.527344 27.964844 1.578125 27.910156 1.542969 C 27.792969 1.472656 27.367188 1.667969 27.085938 1.917969 C 26.984375 2.007812 26.734375 2.167969 26.53125 2.273438 C 26.324219 2.375 26.015625 2.609375 25.839844 2.789062 C 25.664062 2.96875 25.445312 3.117188 25.355469 3.117188 C 25.265625 3.117188 25.191406 3.15625 25.191406 3.207031 C 25.191406 3.257812 24.859375 3.503906 24.457031 3.753906 C 24.050781 4.003906 23.605469 4.308594 23.464844 4.429688 C 23.328125 4.546875 23.089844 4.71875 22.933594 4.808594 C 22.78125 4.902344 22.65625 5.011719 22.65625 5.054688 C 22.65625 5.097656 22.585938 5.132812 22.503906 5.132812 C 22.421875 5.132812 22.351562 5.179688 22.351562 5.238281 C 22.351562 5.296875 22.203125 5.414062 22.023438 5.5 C 21.382812 5.800781 21.238281 5.886719 21.238281 5.96875 C 21.238281 6.042969 21 6.285156 20.542969 6.660156 C 20.433594 6.753906 20.316406 6.804688 20.285156 6.773438 C 20.253906 6.742188 20.199219 6.792969 20.164062 6.882812 C 20.128906 6.972656 20.058594 7.046875 20.007812 7.046875 C 19.957031 7.046875 19.761719 7.195312 19.574219 7.375 C 19.386719 7.554688 19.042969 7.839844 18.8125 8.003906 C 18.582031 8.171875 18.257812 8.429688 18.097656 8.574219 C 17.9375 8.722656 17.773438 8.8125 17.730469 8.777344 C 17.691406 8.742188 17.683594 8.757812 17.71875 8.816406 C 17.792969 8.949219 17.316406 9.410156 17.007812 9.511719 C 16.878906 9.550781 16.777344 9.621094 16.777344 9.667969 C 16.777344 9.71875 16.695312 9.78125 16.597656 9.8125 C 16.394531 9.875 15.054688 11.089844 15.054688 11.210938 C 15.054688 11.316406 14.417969 11.878906 14.292969 11.882812 C 14.238281 11.886719 14.101562 12.007812 13.988281 12.15625 C 13.878906 12.304688 13.730469 12.476562 13.65625 12.535156 C 13.585938 12.59375 13.402344 12.753906 13.253906 12.894531 C 13.105469 13.03125 12.949219 13.136719 12.910156 13.121094 C 12.867188 13.109375 12.859375 13.167969 12.890625 13.25 C 12.921875 13.332031 12.90625 13.398438 12.851562 13.398438 C 12.796875 13.398438 12.46875 13.671875 12.125 14.003906 C 11.777344 14.335938 11.457031 14.609375 11.40625 14.609375 C 11.359375 14.609375 11.289062 14.699219 11.253906 14.808594 C 11.21875 14.921875 11.125 15.011719 11.046875 15.011719 C 10.964844 15.011719 10.902344 15.058594 10.902344 15.117188 C 10.902344 15.175781 10.859375 15.199219 10.808594 15.167969 C 10.722656 15.117188 10.578125 15.347656 10.554688 15.566406 C 10.550781 15.621094 10.5 15.6875 10.445312 15.710938 C 10.386719 15.734375 10.253906 15.863281 10.148438 16 C 9.839844 16.390625 9.5 16.707031 9.445312 16.65625 C 9.417969 16.628906 9.3125 16.734375 9.214844 16.894531 C 9.113281 17.050781 8.972656 17.214844 8.902344 17.261719 C 8.828125 17.304688 8.773438 17.386719 8.773438 17.441406 C 8.773438 17.496094 8.496094 17.816406 8.15625 18.152344 C 7.742188 18.5625 7.554688 18.824219 7.585938 18.941406 C 7.617188 19.066406 7.582031 19.105469 7.46875 19.078125 C 7.363281 19.050781 7.210938 19.175781 7.050781 19.417969 C 6.910156 19.628906 6.71875 19.875 6.621094 19.960938 C 6.519531 20.054688 6.441406 20.171875 6.441406 20.226562 C 6.441406 20.28125 6.257812 20.503906 6.035156 20.71875 C 5.8125 20.933594 5.628906 21.167969 5.628906 21.242188 C 5.628906 21.316406 5.585938 21.347656 5.527344 21.3125 C 5.472656 21.277344 5.425781 21.300781 5.425781 21.367188 C 5.425781 21.433594 5.3125 21.574219 5.175781 21.683594 C 5.035156 21.792969 4.921875 21.9375 4.921875 22.007812 C 4.921875 22.078125 4.78125 22.257812 4.613281 22.40625 C 4.445312 22.558594 4.332031 22.71875 4.359375 22.765625 C 4.390625 22.8125 4.34375 22.878906 4.253906 22.914062 C 4.167969 22.945312 4.125 23.015625 4.15625 23.070312 C 4.1875 23.121094 4.125 23.191406 4.011719 23.226562 C 3.902344 23.261719 3.820312 23.34375 3.832031 23.410156 C 3.847656 23.476562 3.800781 23.519531 3.730469 23.503906 C 3.660156 23.492188 3.605469 23.5625 3.605469 23.664062 C 3.605469 23.808594 3.121094 24.476562 2.796875 24.789062 C 2.765625 24.816406 2.652344 25.011719 2.546875 25.222656 C 2.4375 25.433594 2.25 25.714844 2.128906 25.84375 C 1.757812 26.242188 1.476562 26.675781 1.476562 26.851562 C 1.476562 26.941406 1.410156 27.039062 1.332031 27.066406 C 1.253906 27.097656 1.164062 27.199219 1.132812 27.292969 C 1.097656 27.386719 0.980469 27.597656 0.871094 27.761719 C 0.464844 28.367188 0.421875 28.503906 0.542969 28.773438 C 0.609375 28.910156 0.722656 29.023438 0.796875 29.023438 C 0.945312 29.023438 1.375 28.574219 1.375 28.417969 C 1.375 28.363281 1.417969 28.316406 1.476562 28.316406 C 1.53125 28.316406 1.578125 28.273438 1.578125 28.21875 C 1.578125 28.164062 1.640625 28.039062 1.722656 27.941406 C 2.214844 27.339844 2.757812 26.65625 2.84375 26.523438 C 3.027344 26.238281 3.347656 25.859375 3.695312 25.496094 C 3.882812 25.304688 4.089844 25.023438 4.152344 24.878906 C 4.210938 24.734375 4.410156 24.496094 4.589844 24.34375 C 4.769531 24.191406 4.90625 24.039062 4.894531 24 C 4.882812 23.964844 4.996094 23.769531 5.148438 23.570312 C 5.304688 23.371094 5.425781 23.15625 5.425781 23.089844 C 5.425781 23.027344 5.488281 22.976562 5.5625 22.976562 C 5.636719 22.976562 5.761719 22.851562 5.835938 22.699219 C 6.039062 22.296875 7.1875 21.058594 7.355469 21.058594 C 7.398438 21.058594 7.492188 20.914062 7.5625 20.738281 C 7.683594 20.453125 8.320312 19.75 8.464844 19.75 C 8.601562 19.75 9.191406 18.746094 9.121094 18.632812 C 9.070312 18.550781 9.085938 18.535156 9.167969 18.585938 C 9.339844 18.6875 10.800781 17.148438 10.722656 16.945312 C 10.683594 16.847656 10.703125 16.820312 10.777344 16.863281 C 10.945312 16.964844 11.28125 16.722656 11.414062 16.410156 C 11.476562 16.261719 11.660156 16.082031 11.820312 16.015625 C 11.984375 15.949219 12.117188 15.851562 12.117188 15.800781 C 12.117188 15.75 12.300781 15.519531 12.523438 15.289062 C 12.746094 15.058594 12.925781 14.835938 12.925781 14.792969 C 12.925781 14.753906 13.074219 14.648438 13.257812 14.558594 C 13.4375 14.472656 13.699219 14.242188 13.839844 14.046875 C 13.980469 13.851562 14.199219 13.648438 14.332031 13.59375 C 14.460938 13.539062 14.59375 13.40625 14.621094 13.296875 C 14.648438 13.1875 14.710938 13.097656 14.757812 13.097656 C 14.800781 13.097656 15.074219 12.871094 15.359375 12.59375 C 15.644531 12.316406 16.035156 11.96875 16.226562 11.824219 C 16.417969 11.679688 16.546875 11.519531 16.515625 11.46875 C 16.484375 11.417969 16.503906 11.390625 16.554688 11.40625 C 16.652344 11.433594 17.207031 11.027344 17.671875 10.589844 C 17.808594 10.460938 18.066406 10.277344 18.238281 10.179688 C 18.410156 10.085938 18.59375 9.917969 18.644531 9.804688 C 18.765625 9.539062 19.371094 9.125 19.507812 9.210938 C 19.605469 9.269531 19.660156 9.144531 19.628906 8.9375 C 19.621094 8.898438 19.648438 8.875 19.691406 8.886719 C 19.734375 8.902344 19.867188 8.820312 19.984375 8.710938 C 20.523438 8.214844 20.714844 8.054688 20.777344 8.054688 C 20.8125 8.054688 20.953125 7.9375 21.089844 7.789062 C 21.226562 7.640625 21.339844 7.546875 21.339844 7.578125 C 21.339844 7.609375 21.484375 7.496094 21.667969 7.328125 C 21.847656 7.160156 22.226562 6.875 22.511719 6.695312 C 22.796875 6.515625 23.148438 6.246094 23.292969 6.101562 C 23.441406 5.957031 23.617188 5.839844 23.691406 5.839844 C 23.761719 5.839844 23.953125 5.703125 24.109375 5.535156 C 24.265625 5.371094 24.453125 5.234375 24.519531 5.234375 C 24.589844 5.234375 24.746094 5.121094 24.867188 4.980469 C 24.988281 4.84375 25.136719 4.730469 25.195312 4.730469 C 25.253906 4.730469 25.269531 4.671875 25.230469 4.601562 C 25.191406 4.535156 25.191406 4.507812 25.238281 4.550781 C 25.3125 4.617188 25.886719 4.378906 26 4.234375 C 26.128906 4.070312 26.902344 3.519531 27.003906 3.519531 C 27.066406 3.519531 27.113281 3.472656 27.113281 3.414062 C 27.113281 3.355469 27.15625 3.328125 27.203125 3.359375 C 27.25 3.386719 27.382812 3.324219 27.5 3.214844 C 27.617188 3.105469 27.761719 3.015625 27.820312 3.015625 C 27.9375 3.015625 28.304688 2.824219 28.492188 2.664062 C 28.558594 2.609375 28.757812 2.449219 28.933594 2.308594 C 29.113281 2.171875 29.351562 1.960938 29.464844 1.839844 C 29.578125 1.71875 29.792969 1.566406 29.941406 1.503906 C 30.316406 1.339844 30.96875 0.53125 30.96875 0.230469 C 30.96875 0 30.9375 -0.015625 30.585938 0.0273438 " fill-opacity="1" fill-rule="nonzero"/></g></svg>